<svg width="94" height="94" viewBox="0 0 94 94" fill="none" xmlns="http://www.w3.org/2000/svg">
<g id="card 10">
<path id="Vector" d="M74.4166 3.91663C64.0179 3.91663 56.3099 9.91304 49.5105 15.2084C44.0272 19.4736 38.8533 23.5 33.2916 23.5H11.75C6.36846 23.5 3.91663 33.652 3.91663 43.0833C3.91663 52.5146 6.36846 62.6666 11.75 62.6666H16.1484L22.3563 84.4002C22.8293 86.034 23.8187 87.4706 25.1765 88.4951C26.5342 89.5196 28.1872 90.0768 29.888 90.0833H40.4905C44.0781 90.0833 47 87.1615 47 83.5738V82.8845C47 79.2929 44.0781 76.375 40.4905 76.375C39.9455 76.3757 39.4141 76.2046 38.9718 75.8861C38.5296 75.5676 38.1989 75.1178 38.0269 74.6007L34.071 62.7371C39.335 63.0896 44.2857 66.8966 49.5066 70.9621C56.3099 76.2535 64.0179 82.25 74.4166 82.25C84.5921 82.25 90.0833 62.0713 90.0833 43.0833C90.0833 24.0953 84.5921 3.91663 74.4166 3.91663Z" fill="#303C42"/>
<path id="Vector_2" d="M7.83337 43.0833C7.83337 32.802 10.7435 27.4166 11.75 27.4166H30.3072C28.345 31.2354 27.4167 37.2905 27.4167 43.0833C27.4167 48.876 28.345 54.9312 30.3072 58.75H11.75C10.7435 58.75 7.83337 53.3645 7.83337 43.0833Z" fill="#D32F2F"/>
<path id="Vector_3" d="M40.4904 80.2917C41.92 80.2917 43.0833 81.4549 43.0833 82.8845V83.5738C43.0822 84.2612 42.8087 84.9201 42.3227 85.4061C41.8367 85.8921 41.1778 86.1656 40.4904 86.1667H29.888C28.149 86.1667 26.6019 84.9995 26.1241 83.3271L20.2217 62.6667H29.9233L34.3138 75.8384C34.7445 77.1358 35.5732 78.2644 36.682 79.0639C37.7908 79.8633 39.1234 80.2929 40.4904 80.2917ZM35.2499 58.9028V58.75C34.2433 58.75 31.3333 53.3646 31.3333 43.0833C31.3333 32.8021 34.2433 27.4167 35.2499 27.4167V27.2639C41.2894 26.5276 46.4712 22.5365 51.9153 18.2987C56.3451 14.8481 60.8963 11.3583 66.1328 9.40784C61.2997 16.6968 58.7499 30.1583 58.7499 43.0833C58.7499 56.0083 61.2997 69.4699 66.1328 76.7588C60.8963 74.8083 56.3451 71.3186 51.9153 67.868C46.4712 63.6302 41.2894 59.643 35.2499 58.9028Z" fill="#F2F2F2"/>
<path id="Vector_4" opacity="0.2" d="M11.75 31.3333H28.8698C29.2693 29.8881 29.7315 28.5368 30.3072 27.4167H11.75C10.7435 27.4167 7.83337 32.8021 7.83337 43.0833C7.83337 43.7766 7.87646 44.3915 7.90387 45.0417C8.24854 36.0764 10.81 31.3333 11.75 31.3333ZM35.25 31.3333V31.1806C41.2895 30.4443 46.4713 26.4532 51.9155 22.2153C55.5932 19.3523 59.3806 16.5166 63.548 14.4995C64.3274 12.6117 65.1734 10.8609 66.1369 9.40784C60.9003 11.3583 56.3491 14.8481 51.9194 18.2987C46.4713 22.5365 41.2895 26.5237 35.25 27.2639V27.4167C34.2435 27.4167 31.3334 32.8021 31.3334 43.0833C31.3334 43.7766 31.3765 44.3915 31.4039 45.0417C31.7485 36.0764 34.31 31.3333 35.25 31.3333Z" fill="white"/>
<path id="Vector_5" d="M74.4166 78.3334C69.9751 78.3334 65.138 69.0744 63.3716 54.7629C69.5168 54.3908 74.4166 49.3226 74.4166 43.0834C74.4166 36.8441 69.5168 31.776 63.3716 31.4039C65.138 17.0924 69.9751 7.83337 74.4166 7.83337C79.9743 7.83337 86.1666 22.3094 86.1666 43.0834C86.1666 63.8574 79.9743 78.3334 74.4166 78.3334Z" fill="#F2F2F2"/>
<path id="Vector_6" d="M62.6668 43.0834C62.6668 40.3652 62.7764 37.7645 62.9762 35.2814C67.1474 35.4459 70.5001 38.869 70.5001 43.0834C70.5001 47.2977 67.1474 50.7209 62.9762 50.8854C62.7687 48.2899 62.6654 45.6871 62.6668 43.0834Z" fill="#D32F2F"/>
<path id="Vector_7" d="M40.4904 80.2916C39.1234 80.2929 37.7908 79.8633 36.682 79.0638C35.5732 78.2644 34.7445 77.1357 34.3138 75.8384L29.9233 62.6666H20.2217L20.5272 63.732L42.2529 85.4577C42.5136 85.2178 42.7218 84.9266 42.8647 84.6024C43.0076 84.2782 43.082 83.9281 43.0833 83.5738V82.8845C43.0822 82.1971 42.8087 81.5382 42.3227 81.0522C41.8367 80.5662 41.1778 80.2927 40.4904 80.2916Z" fill="url(#paint0_linear_19_3321)"/>
<path id="Vector_8" opacity="0.1" d="M64.6251 48.9584C64.6251 29.4886 69.8852 13.7084 76.3751 13.7084C79.1207 13.7084 81.6391 16.5558 83.6405 21.2871C81.4902 13.1052 78.1611 7.83337 74.4167 7.83337C67.9268 7.83337 62.6667 23.6136 62.6667 43.0834C62.6667 54.3164 64.4253 64.296 67.1513 70.7546C65.5729 64.7504 64.6251 57.1951 64.6251 48.9584Z" fill="black"/>
<path id="Vector_9" d="M74.4166 3.91663C64.0179 3.91663 56.3099 9.91304 49.5105 15.2084C44.0272 19.4736 38.8533 23.5 33.2916 23.5H11.75C6.36846 23.5 3.91663 33.652 3.91663 43.0833C3.91663 52.5146 6.36846 62.6666 11.75 62.6666H16.1484L22.3563 84.4002C22.8293 86.034 23.8187 87.4706 25.1765 88.4951C26.5342 89.5196 28.1872 90.0768 29.888 90.0833H40.4905C44.0781 90.0833 47 87.1615 47 83.5738V82.8845C47 79.2929 44.0781 76.375 40.4905 76.375C39.9455 76.3757 39.4141 76.2046 38.9718 75.8861C38.5296 75.5676 38.1989 75.1178 38.0269 74.6007L34.071 62.7371C39.335 63.0896 44.2857 66.8966 49.5066 70.9621C56.3099 76.2535 64.0179 82.25 74.4166 82.25C84.5921 82.25 90.0833 62.0713 90.0833 43.0833C90.0833 24.0953 84.5921 3.91663 74.4166 3.91663Z" fill="url(#paint1_linear_19_3321)"/>
</g>
<defs>
<linearGradient id="paint0_linear_19_3321" x1="22.4581" y1="60.4302" x2="44.8653" y2="82.8414" gradientUnits="userSpaceOnUse">
<stop stop-opacity="0.1"/>
<stop offset="1" stop-opacity="0"/>
</linearGradient>
<linearGradient id="paint1_linear_19_3321" x1="7.38288" y1="26.1359" x2="88.9005" y2="64.1471" gradientUnits="userSpaceOnUse">
<stop stop-color="white" stop-opacity="0.2"/>
<stop offset="1" stop-color="white" stop-opacity="0"/>
</linearGradient>
</defs>
</svg>
