<svg width="94" height="94" viewBox="0 0 94 94" fill="none" xmlns="http://www.w3.org/2000/svg">
<g id="card 10">
<path id="Vector" d="M74.4167 7.83333H66.223C65.4123 5.55775 63.2581 3.91667 60.7083 3.91667H54.7903C52.9533 1.47658 50.0589 0 47 0C43.9411 0 41.0467 1.47658 39.2097 3.91667H33.2917C30.7419 3.91667 28.5877 5.55775 27.777 7.83333H19.5833C15.2632 7.83333 11.75 11.3466 11.75 15.6667V86.1667C11.75 90.4868 15.2632 94 19.5833 94H74.4167C78.7367 94 82.25 90.4868 82.25 86.1667V15.6667C82.25 11.3466 78.7367 7.83333 74.4167 7.83333Z" fill="#303C42"/>
<path id="Vector_2" d="M31.3333 9.7917C31.3333 9.27232 31.5396 8.77421 31.9068 8.40695C32.2741 8.03969 32.7722 7.83337 33.2916 7.83337H40.2515C40.5942 7.83307 40.9308 7.74285 41.2277 7.57171C41.5247 7.40057 41.7715 7.15451 41.9435 6.85812C42.4513 5.96478 43.1867 5.22192 44.0749 4.70515C44.9631 4.18838 45.9723 3.91614 46.9999 3.91614C48.0275 3.91614 49.0367 4.18838 49.9249 4.70515C50.8131 5.22192 51.5485 5.96478 52.0563 6.85812C52.2284 7.15451 52.4752 7.40057 52.7721 7.57171C53.069 7.74285 53.4056 7.83307 53.7483 7.83337H60.7083C61.2276 7.83337 61.7257 8.03969 62.093 8.40695C62.4603 8.77421 62.6666 9.27232 62.6666 9.7917V11.75C62.6666 13.9081 60.9119 15.6667 58.7499 15.6667H35.2499C33.0879 15.6667 31.3333 13.9081 31.3333 11.75V9.7917Z" fill="#CCCCCC"/>
<path id="Vector_3" d="M78.3333 86.1667C78.3333 88.3248 76.5786 90.0833 74.4166 90.0833H19.5833C17.4213 90.0833 15.6666 88.3248 15.6666 86.1667V15.6667C15.6666 13.5086 17.4213 11.75 19.5833 11.75H27.4166C27.4166 16.0701 30.9299 19.5833 35.25 19.5833H58.75C63.07 19.5833 66.5833 16.0701 66.5833 11.75H74.4166C76.5786 11.75 78.3333 13.5086 78.3333 15.6667V86.1667Z" fill="white"/>
<path id="Vector_4" d="M29.375 43.0834C32.6197 43.0834 35.25 40.453 35.25 37.2084C35.25 33.9637 32.6197 31.3334 29.375 31.3334C26.1303 31.3334 23.5 33.9637 23.5 37.2084C23.5 40.453 26.1303 43.0834 29.375 43.0834Z" fill="#303C42"/>
<path id="Vector_5" d="M29.3751 39.1667C30.4566 39.1667 31.3334 38.2899 31.3334 37.2083C31.3334 36.1268 30.4566 35.25 29.3751 35.25C28.2935 35.25 27.4167 36.1268 27.4167 37.2083C27.4167 38.2899 28.2935 39.1667 29.3751 39.1667Z" fill="#303C42"/>
<path id="Vector_6" d="M29.375 62.6666C32.6197 62.6666 35.25 60.0363 35.25 56.7916C35.25 53.547 32.6197 50.9166 29.375 50.9166C26.1303 50.9166 23.5 53.547 23.5 56.7916C23.5 60.0363 26.1303 62.6666 29.375 62.6666Z" fill="#303C42"/>
<path id="Vector_7" d="M29.3751 58.75C30.4566 58.75 31.3334 57.8733 31.3334 56.7917C31.3334 55.7101 30.4566 54.8334 29.3751 54.8334C28.2935 54.8334 27.4167 55.7101 27.4167 56.7917C27.4167 57.8733 28.2935 58.75 29.3751 58.75Z" fill="#303C42"/>
<path id="Vector_8" d="M29.375 82.25C32.6197 82.25 35.25 79.6197 35.25 76.375C35.25 73.1303 32.6197 70.5 29.375 70.5C26.1303 70.5 23.5 73.1303 23.5 76.375C23.5 79.6197 26.1303 82.25 29.375 82.25Z" fill="#303C42"/>
<path id="Vector_9" d="M29.3751 78.3333C30.4566 78.3333 31.3334 77.4565 31.3334 76.375C31.3334 75.2934 30.4566 74.4166 29.3751 74.4166C28.2935 74.4166 27.4167 75.2934 27.4167 76.375C27.4167 77.4565 28.2935 78.3333 29.3751 78.3333Z" fill="#303C42"/>
<path id="Vector_10" d="M74.4167 11.75H66.5834C66.5834 16.0701 63.0702 19.5833 58.7501 19.5833H35.2501C33.1782 19.5833 31.3021 18.7608 29.8999 17.4409L78.3334 65.8744V15.6667C78.3334 13.5086 76.5787 11.75 74.4167 11.75Z" fill="url(#paint0_linear_19_3379)"/>
<path id="Vector_11" d="M29.3985 16.9043L29.375 16.916L29.5591 17.1001C29.5003 17.0375 29.4533 16.967 29.3985 16.9043Z" fill="white"/>
<path id="Vector_12" d="M68.5416 35.25H45.0416C44.5222 35.25 44.0241 35.4563 43.6568 35.8236C43.2896 36.1908 43.0833 36.689 43.0833 37.2083C43.0833 37.7277 43.2896 38.2258 43.6568 38.5931C44.0241 38.9603 44.5222 39.1667 45.0416 39.1667H68.5416C69.061 39.1667 69.5591 38.9603 69.9263 38.5931C70.2936 38.2258 70.4999 37.7277 70.4999 37.2083C70.4999 36.689 70.2936 36.1908 69.9263 35.8236C69.5591 35.4563 69.061 35.25 68.5416 35.25ZM68.5416 54.8333H45.0416C44.5222 54.8333 44.0241 55.0397 43.6568 55.4069C43.2896 55.7742 43.0833 56.2723 43.0833 56.7917C43.0833 57.311 43.2896 57.8092 43.6568 58.1764C44.0241 58.5437 44.5222 58.75 45.0416 58.75H68.5416C69.061 58.75 69.5591 58.5437 69.9263 58.1764C70.2936 57.8092 70.4999 57.311 70.4999 56.7917C70.4999 56.2723 70.2936 55.7742 69.9263 55.4069C69.5591 55.0397 69.061 54.8333 68.5416 54.8333ZM68.5416 74.4167H45.0416C44.5222 74.4167 44.0241 74.623 43.6568 74.9902C43.2896 75.3575 43.0833 75.8556 43.0833 76.375C43.0833 76.8944 43.2896 77.3925 43.6568 77.7598C44.0241 78.127 44.5222 78.3333 45.0416 78.3333H68.5416C69.061 78.3333 69.5591 78.127 69.9263 77.7598C70.2936 77.3925 70.4999 76.8944 70.4999 76.375C70.4999 75.8556 70.2936 75.3575 69.9263 74.9902C69.5591 74.623 69.061 74.4167 68.5416 74.4167Z" fill="#303C42"/>
<path id="Vector_13" d="M74.4167 7.83333H66.223C65.4123 5.55775 63.2581 3.91667 60.7083 3.91667H54.7903C52.9533 1.47658 50.0589 0 47 0C43.9411 0 41.0467 1.47658 39.2097 3.91667H33.2917C30.7419 3.91667 28.5877 5.55775 27.777 7.83333H19.5833C15.2632 7.83333 11.75 11.3466 11.75 15.6667V86.1667C11.75 90.4868 15.2632 94 19.5833 94H74.4167C78.7367 94 82.25 90.4868 82.25 86.1667V15.6667C82.25 11.3466 78.7367 7.83333 74.4167 7.83333Z" fill="url(#paint1_linear_19_3379)"/>
</g>
<defs>
<linearGradient id="paint0_linear_19_3379" x1="42.8562" y1="4.48458" x2="91.2897" y2="52.9181" gradientUnits="userSpaceOnUse">
<stop stop-opacity="0.1"/>
<stop offset="1" stop-opacity="0"/>
</linearGradient>
<linearGradient id="paint1_linear_19_3379" x1="3.88142" y1="30.8085" x2="90.1186" y2="71.0248" gradientUnits="userSpaceOnUse">
<stop stop-color="white" stop-opacity="0.2"/>
<stop offset="1" stop-color="white" stop-opacity="0"/>
</linearGradient>
</defs>
</svg>
