<svg width="153" height="34" viewBox="0 0 153 34" fill="none" xmlns="http://www.w3.org/2000/svg">
<g clip-path="url(#clip0_225_2798)">
<mask id="mask0_225_2798" style="mask-type:luminance" maskUnits="userSpaceOnUse" x="0" y="13" width="153" height="21">
<path d="M0 13.1855H153V34.0005H0V13.1855Z" fill="white"/>
</mask>
<g mask="url(#mask0_225_2798)">
<path fill-rule="evenodd" clip-rule="evenodd" d="M12.158 13.6883H1.96308L0.0214844 33.7263H15.8863L16.3216 29.7617H10.6222L12.158 13.6883ZM40.4566 23.6657C41.1154 16.3018 37.3239 13.3848 31.0722 13.3848C29.8569 13.3848 28.6415 13.3848 27.4272 13.3848C21.5951 13.3848 17.3482 16.4585 16.4902 23.1748C15.6491 29.8329 18.9747 33.9828 25.5025 33.9828C26.6167 33.9828 27.7308 33.9828 28.845 33.9828C34.8879 33.9828 39.8863 31.4065 40.4566 23.6657ZM26.0011 27.752C25.8809 28.8785 26.3985 29.857 27.6908 29.857C28.9714 29.857 30.0772 29.2357 30.1193 27.7585C30.3702 24.9642 30.62 22.1688 30.8698 19.3745C30.9784 18.237 30.2058 17.5028 29.0821 17.5028C27.8099 17.5028 26.9771 18.2896 26.8865 19.2265L26.0011 27.752ZM119.78 13.5831H105.84L103.848 33.7263H113.481L114.997 17.6409H117.184C118.122 17.6409 118.966 18.2524 118.83 19.3076L117.496 33.7263H127.174L128.443 21.1037C129.171 15.6104 125.692 13.5831 119.78 13.5831ZM153.004 13.6883H141.797C134.76 13.6883 130.538 15.6827 129.73 21.6888C129.565 22.9172 129.425 24.4306 129.38 25.659C129.174 31.1764 131.432 33.7263 137.611 33.7263H151.316L152.531 21.8981H143.077L142.386 29.2335H140.081C138.756 29.2335 138.535 28.2582 138.639 27.1887C138.894 24.7242 139.148 22.2576 139.405 19.7909C139.499 18.374 140.258 17.6519 141.483 17.6519H152.715L153.004 13.6883ZM103.585 13.6883H93.3908L91.3996 33.7263H101.644L103.585 13.6883ZM92.6044 13.6883H83.4752L77.9898 19.8643L78.5969 13.6883H68.4009L66.4098 33.7263H76.6817L77.2551 26.9542L81.0866 33.7263H90.7482L84.5377 22.651L92.6044 13.6883ZM57.0634 13.5831H43.1223L41.1301 33.7263H50.7632L52.28 17.6409H54.4662C55.4053 17.6409 56.2475 18.2524 56.1116 19.3076L54.7771 33.7263H64.4556L65.7247 21.1037C66.453 15.6104 62.9736 13.5831 57.0634 13.5831Z" fill="black"/>
</g>
<path fill-rule="evenodd" clip-rule="evenodd" d="M109.256 -0.0175781L94.5379 4.02707L93.7031 12.318L108.419 8.48374L109.256 -0.0175781Z" fill="#24378C"/>
</g>
<defs>
<clipPath id="clip0_225_2798">
<rect width="153" height="34" fill="white"/>
</clipPath>
</defs>
</svg>
