<svg width="94" height="94" viewBox="0 0 94 94" fill="none" xmlns="http://www.w3.org/2000/svg">
<g id="card 10" clip-path="url(#clip0_19_3367)">
<path id="Vector" d="M92.0417 43.0833C91.1526 43.0833 90.2988 42.9933 89.4919 42.8327C89.864 41.1446 90.0833 39.2724 90.0833 37.2083C90.0833 33.9692 87.4474 31.3333 84.2083 31.3333C80.9693 31.3333 78.3333 33.9692 78.3333 37.2083C78.3333 40.4278 80.9105 43.4632 84.6039 45.2806C84.091 46.473 83.4418 47.602 82.6691 48.645C77.8947 40.7373 68.5926 34.7056 57.246 32.3908C58.9705 31.0591 60.3522 29.335 61.2763 27.3618C68.5652 27.0524 74.4167 21.0717 74.4167 13.7083C74.4167 6.14917 68.2675 0 60.7083 0C58.1101 0.00783842 55.5677 0.754336 53.3776 2.15241C51.1876 3.55047 49.4403 5.54247 48.3395 7.896C44.8216 8.0511 41.4988 9.5555 39.0612 12.0967C36.6236 14.6378 35.2587 18.0204 35.25 21.5417C35.25 25.6503 37.1065 29.3006 39.9813 31.8151C33.4131 32.712 27.2365 34.8583 22.043 38.0935C19.6577 36.2464 16.7252 35.2459 13.7083 35.25C13.189 35.25 12.6908 35.4563 12.3236 35.8236C11.9563 36.1908 11.75 36.689 11.75 37.2083C11.75 39.9108 12.5764 42.5546 14.1078 44.8145C11.4837 47.8813 9.62717 51.2927 8.66367 54.8333H7.83333C3.51325 54.8333 0 58.3466 0 62.6667C0 67.0259 2.209 71.0013 5.90633 73.3122L19.5833 81.8309V92.0417C19.5833 92.5611 19.7897 93.0592 20.1569 93.4264C20.5242 93.7937 21.0223 94 21.5417 94H29.375C29.7384 94 30.0946 93.8989 30.4038 93.708C30.713 93.5171 30.963 93.2439 31.1258 92.919L33.4444 88.2817C42.112 90.6708 51.888 90.6708 60.5556 88.2817L62.8742 92.919C63.037 93.2439 63.287 93.5171 63.5962 93.708C63.9054 93.8989 64.2616 94 64.625 94H72.4583C72.9777 94 73.4758 93.7937 73.8431 93.4264C74.2103 93.0592 74.4167 92.5611 74.4167 92.0417V81.6743C81.8975 76.1713 86.1667 68.5808 86.1667 60.7083C86.1545 57.8956 85.6165 55.11 84.5804 52.4951C86.1513 50.7499 87.4136 48.7499 88.313 46.5809C89.5115 46.8512 90.7648 47 92.0417 47C92.5611 47 93.0592 46.7937 93.4264 46.4264C93.7937 46.0592 94 45.5611 94 45.0417C94 44.5223 93.7937 44.0242 93.4264 43.6569C93.0592 43.2897 92.5611 43.0833 92.0417 43.0833ZM85.7711 41.4579C83.5934 40.2242 82.25 38.5126 82.25 37.2083C82.25 36.689 82.4563 36.1908 82.8236 35.8236C83.1908 35.4563 83.6889 35.25 84.2083 35.25C84.7277 35.25 85.2258 35.4563 85.5931 35.8236C85.9603 36.1908 86.1667 36.689 86.1667 37.2083C86.1667 38.7554 86.0218 40.1693 85.7711 41.4579Z" fill="#303C42"/>
<path id="Vector_2" d="M71.3421 79.054C71.0828 79.235 70.871 79.4758 70.7244 79.756C70.5778 80.0362 70.5009 80.3475 70.5 80.6637V90.0833H65.8352L63.3247 85.0622C63.118 84.6445 62.7684 84.3147 62.3394 84.1329C61.9103 83.9511 61.4302 83.9292 60.9864 84.0712C52.1308 86.8521 41.8692 86.8521 33.0136 84.0712C32.5696 83.9317 32.0905 83.9547 31.6621 84.1363C31.2336 84.3179 30.8838 84.6461 30.6753 85.0622L28.1647 90.0833H23.5V80.746C23.5 80.4138 23.4155 80.0872 23.2545 79.7967C23.0935 79.5061 22.8612 79.2614 22.5796 79.0853L7.98216 69.9908C6.73567 69.2186 5.70765 68.14 4.99601 66.858C4.28436 65.5759 3.91278 64.133 3.91666 62.6667C3.91666 60.5086 5.67524 58.75 7.83332 58.75H10.2147C10.669 58.7503 11.1093 58.5926 11.4601 58.3039C11.811 58.0152 12.0505 57.6135 12.1377 57.1677C12.8897 53.3097 14.9421 49.5419 18.0715 46.2715C18.4099 45.9179 18.6036 45.4504 18.6145 44.961C18.6254 44.4717 18.4526 43.996 18.1302 43.6277C17.0618 42.4273 16.3046 40.9828 15.9252 39.4212C17.6367 39.8207 19.2152 40.6824 20.5116 41.9397C20.834 42.2548 21.2557 42.4484 21.7049 42.4877C22.154 42.527 22.6029 42.4094 22.9752 42.1551C29.5395 37.7018 38.07 35.25 47 35.25C66.4345 35.25 82.25 46.671 82.25 60.7083C82.25 67.6643 78.3764 74.1817 71.3421 79.054Z" fill="#E57373"/>
<path id="Vector_3" opacity="0.2" d="M7.83329 60.7083H10.2146C10.669 60.7086 11.1093 60.5509 11.4601 60.2622C11.8109 59.9736 12.0505 59.5719 12.1377 59.126C12.8897 55.2681 14.942 51.5002 18.0715 48.2298C18.3612 47.9214 18.5419 47.5265 18.5857 47.1056C18.6296 46.6846 18.5342 46.261 18.3143 45.8994C18.2399 46.0287 18.1772 46.1618 18.0715 46.2715C14.942 49.5419 12.8897 53.3097 12.1377 57.1677C12.0505 57.6135 11.8109 58.0152 11.4601 58.3039C11.1093 58.5926 10.669 58.7503 10.2146 58.75H7.83329C5.67521 58.75 3.91663 60.5086 3.91663 62.6667C3.91663 63.0779 4.01454 63.4696 4.06938 63.8691C4.23285 62.9875 4.6977 62.1901 5.38434 61.6135C6.07098 61.0369 6.9367 60.7169 7.83329 60.7083Z" fill="white"/>
<path id="Vector_4" d="M19.5833 50.9166C17.4252 50.9166 15.6666 52.6752 15.6666 54.8333C15.6666 56.9914 17.4252 58.75 19.5833 58.75C21.7414 58.75 23.5 56.9914 23.5 54.8333C23.5 52.6752 21.7414 50.9166 19.5833 50.9166ZM61.3193 41.2229C53.1217 38.5321 40.8782 38.5321 32.6806 41.2229C32.4333 41.3007 32.204 41.4268 32.0058 41.594C31.8077 41.7611 31.6446 41.9659 31.5262 42.1965C31.4078 42.4271 31.3364 42.6789 31.3161 42.9374C31.2958 43.1958 31.3269 43.4557 31.4078 43.702C31.4887 43.9483 31.6177 44.1761 31.7873 44.3721C31.9569 44.5682 32.1637 44.7286 32.3958 44.8441C32.6279 44.9596 32.8805 45.0279 33.1392 45.045C33.3979 45.0621 33.6574 45.0277 33.9026 44.9437C41.3247 42.5076 52.6791 42.5076 60.0973 44.9437C60.5907 45.1058 61.1283 45.0652 61.5918 44.8309C62.0552 44.5966 62.4067 44.1877 62.5687 43.6943C62.7308 43.2009 62.6902 42.6633 62.4558 42.1998C62.2215 41.7364 61.8127 41.3849 61.3193 41.2229Z" fill="#303C42"/>
<path id="Vector_5" d="M60.7083 23.5C66.1161 23.5 70.5 19.1161 70.5 13.7083C70.5 8.3005 66.1161 3.91663 60.7083 3.91663C55.3005 3.91663 50.9166 8.3005 50.9166 13.7083C50.9166 19.1161 55.3005 23.5 60.7083 23.5Z" fill="#FFCA28"/>
<path id="Vector_6" d="M39.1666 21.5416C39.1666 16.7829 42.582 12.8192 47.1762 11.9536C47.1018 12.5372 47 13.109 47 13.7083C47 14.707 47.1214 15.6744 47.325 16.6105C47.1223 16.9108 47.0096 17.2628 47 17.6249V25.4583C47 25.9777 47.2063 26.4758 47.5735 26.843C47.9408 27.2103 48.4389 27.4166 48.9583 27.4166C49.4777 27.4166 49.9758 27.2103 50.343 26.843C50.7103 26.4758 50.9166 25.9777 50.9166 25.4583V23.2728C52.589 24.9844 54.7158 26.2142 57.0854 26.8722C56.2091 28.2335 55.0068 29.3545 53.5876 30.1335C52.1684 30.9125 50.5772 31.3249 48.9583 31.3333C46.3623 31.3302 43.8736 30.2976 42.038 28.4619C40.2024 26.6263 39.1697 24.1376 39.1666 21.5416Z" fill="#FFCA28"/>
<path id="Vector_7" d="M39.1666 21.5416C39.1666 16.7829 42.582 12.8192 47.1762 11.9536C47.1018 12.5372 47 13.109 47 13.7083C47 14.707 47.1214 15.6744 47.325 16.6105C47.1223 16.9108 47.0096 17.2628 47 17.6249V25.4583C47 25.9777 47.2063 26.4758 47.5735 26.843C47.9408 27.2103 48.4389 27.4166 48.9583 27.4166C49.4777 27.4166 49.9758 27.2103 50.343 26.843C50.7103 26.4758 50.9166 25.9777 50.9166 25.4583V23.2728C52.589 24.9844 54.7158 26.2142 57.0854 26.8722C56.2091 28.2335 55.0068 29.3545 53.5876 30.1335C52.1684 30.9125 50.5772 31.3249 48.9583 31.3333C46.3623 31.3302 43.8736 30.2976 42.038 28.4619C40.2024 26.6263 39.1697 24.1376 39.1666 21.5416Z" fill="#FFCA28"/>
<path id="Vector_8" opacity="0.1" d="M50.9167 23.2728V25.4583C50.9167 25.9777 50.7104 26.4758 50.3431 26.843C49.9759 27.2103 49.4778 27.4166 48.9584 27.4166C48.439 27.4166 47.9409 27.2103 47.5736 26.843C47.2064 26.4758 47 25.9777 47 25.4583V17.6249C47 17.245 47.1371 16.9121 47.3251 16.6105C47.113 15.6576 47.004 14.6846 47 13.7083C47 13.109 47.1019 12.5372 47.1763 11.9536C46.0066 12.1769 44.8867 12.6094 43.8706 13.2304C43.3664 14.6415 43.1004 16.1266 43.0834 17.6249C43.0834 23.6723 47.1136 28.8109 52.5578 30.6283C54.4182 29.873 55.9996 28.5611 57.0855 26.8722C54.7474 26.2382 52.619 24.9963 50.9167 23.2728Z" fill="black"/>
<path id="Vector_9" d="M60.7083 19.5834C61.2277 19.5834 61.7258 19.3771 62.0931 19.0098C62.4603 18.6425 62.6667 18.1444 62.6667 17.625V9.79171C62.6667 9.27233 62.4603 8.77422 62.0931 8.40696C61.7258 8.0397 61.2277 7.83337 60.7083 7.83337C60.189 7.83337 59.6908 8.0397 59.3236 8.40696C58.9563 8.77422 58.75 9.27233 58.75 9.79171V17.625C58.75 18.1444 58.9563 18.6425 59.3236 19.0098C59.6908 19.3771 60.189 19.5834 60.7083 19.5834Z" fill="#303C42"/>
<path id="Vector_10" opacity="0.2" d="M20.5116 43.898C20.8341 44.2131 21.2557 44.4068 21.7049 44.446C22.154 44.4853 22.6029 44.3678 22.9752 44.1134C29.5395 39.6602 38.07 37.2083 47 37.2083C65.9802 37.2083 81.4628 48.1084 82.1834 61.6914C82.1991 61.3624 82.25 61.0373 82.25 60.7083C82.25 46.671 66.4345 35.25 47 35.25C38.07 35.25 29.5395 37.7018 22.9752 42.1551C22.6032 42.4102 22.1541 42.5281 21.7048 42.4889C21.2554 42.4496 20.8337 42.2554 20.5116 41.9397C19.2398 40.6994 17.6543 39.8288 15.9252 39.4212C16.1171 40.2202 16.4226 40.9879 16.8143 41.7203C18.1733 42.1825 19.4502 42.8679 20.5116 43.898Z" fill="white"/>
<path id="Vector_11" d="M92.0417 43.0833C91.1526 43.0833 90.2988 42.9933 89.4919 42.8327C89.864 41.1446 90.0833 39.2724 90.0833 37.2083C90.0833 33.9692 87.4474 31.3333 84.2083 31.3333C80.9693 31.3333 78.3333 33.9692 78.3333 37.2083C78.3333 40.4278 80.9105 43.4632 84.6039 45.2806C84.091 46.473 83.4418 47.602 82.6691 48.645C77.8947 40.7373 68.5926 34.7056 57.246 32.3908C58.9705 31.0591 60.3522 29.335 61.2763 27.3618C68.5652 27.0524 74.4167 21.0717 74.4167 13.7083C74.4167 6.14917 68.2675 0 60.7083 0C58.1101 0.00783842 55.5677 0.754336 53.3776 2.15241C51.1876 3.55047 49.4403 5.54247 48.3395 7.896C44.8216 8.0511 41.4988 9.5555 39.0612 12.0967C36.6236 14.6378 35.2587 18.0204 35.25 21.5417C35.25 25.6503 37.1065 29.3006 39.9813 31.8151C33.4131 32.712 27.2365 34.8583 22.043 38.0935C19.6577 36.2464 16.7252 35.2459 13.7083 35.25C13.189 35.25 12.6908 35.4563 12.3236 35.8236C11.9563 36.1908 11.75 36.689 11.75 37.2083C11.75 39.9108 12.5764 42.5546 14.1078 44.8145C11.4837 47.8813 9.62717 51.2927 8.66367 54.8333H7.83333C3.51325 54.8333 0 58.3466 0 62.6667C0 67.0259 2.209 71.0013 5.90633 73.3122L19.5833 81.8309V92.0417C19.5833 92.5611 19.7897 93.0592 20.1569 93.4264C20.5242 93.7937 21.0223 94 21.5417 94H29.375C29.7384 94 30.0946 93.8989 30.4038 93.708C30.713 93.5171 30.963 93.2439 31.1258 92.919L33.4444 88.2817C42.112 90.6708 51.888 90.6708 60.5556 88.2817L62.8742 92.919C63.037 93.2439 63.287 93.5171 63.5962 93.708C63.9054 93.8989 64.2616 94 64.625 94H72.4583C72.9777 94 73.4758 93.7937 73.8431 93.4264C74.2103 93.0592 74.4167 92.5611 74.4167 92.0417V81.6743C81.8975 76.1713 86.1667 68.5808 86.1667 60.7083C86.1545 57.8956 85.6165 55.11 84.5804 52.4951C86.1513 50.7499 87.4136 48.7499 88.313 46.5809C89.5115 46.8512 90.7648 47 92.0417 47C92.5611 47 93.0592 46.7937 93.4264 46.4264C93.7937 46.0592 94 45.5611 94 45.0417C94 44.5223 93.7937 44.0242 93.4264 43.6569C93.0592 43.2897 92.5611 43.0833 92.0417 43.0833ZM85.7711 41.4579C83.5934 40.2242 82.25 38.5126 82.25 37.2083C82.25 36.689 82.4563 36.1908 82.8236 35.8236C83.1908 35.4563 83.6889 35.25 84.2083 35.25C84.7277 35.25 85.2258 35.4563 85.5931 35.8236C85.9603 36.1908 86.1667 36.689 86.1667 37.2083C86.1667 38.7554 86.0218 40.1693 85.7711 41.4579Z" fill="url(#paint0_linear_19_3367)"/>
</g>
<defs>
<linearGradient id="paint0_linear_19_3367" x1="12.9132" y1="33.2368" x2="86.1197" y2="67.3745" gradientUnits="userSpaceOnUse">
<stop stop-color="white" stop-opacity="0.2"/>
<stop offset="1" stop-color="white" stop-opacity="0"/>
</linearGradient>
<clipPath id="clip0_19_3367">
<rect width="94" height="94" fill="white"/>
</clipPath>
</defs>
</svg>
