<svg width="81" height="81" viewBox="0 0 81 81" fill="none" xmlns="http://www.w3.org/2000/svg">
<g id="Frame">
<g id="Group">
<path id="Vector" d="M40.5001 0C25.6125 0 13.5 12.1125 13.5 27.0001C13.5 31.4693 14.6174 35.9006 16.7416 39.831L39.0235 80.1299C39.3202 80.6671 39.8854 81 40.5001 81C41.1147 81 41.6799 80.6671 41.9766 80.1299L64.2668 39.8177C66.3827 35.9006 67.5001 31.4691 67.5001 26.9999C67.5001 12.1125 55.3876 0 40.5001 0ZM40.5001 40.5C33.0563 40.5 27.0001 34.4438 27.0001 27.0001C27.0001 19.5563 33.0563 13.5001 40.5001 13.5001C47.9438 13.5001 54 19.5563 54 27.0001C54 34.4438 47.9438 40.5 40.5001 40.5Z" fill="#1F1F1F"/>
</g>
</g>
</svg>
