<svg width="72" height="71" viewBox="0 0 72 71" fill="none" xmlns="http://www.w3.org/2000/svg">
<g id="Frame" clip-path="url(#clip0_225_2795)">
<g id="Group">
<path id="Vector" d="M70.0409 52.1068L59.9931 42.1986C56.4046 38.6599 50.3041 40.0755 48.8687 44.6756C47.7922 47.8606 44.2037 49.6299 40.974 48.922C33.797 47.1527 24.1081 37.9522 22.3138 30.521C21.2372 27.3361 23.3904 23.7974 26.62 22.7359C31.2851 21.3205 32.7205 15.3047 29.132 11.7661L19.0841 1.8578C16.2133 -0.619266 11.9071 -0.619266 9.39519 1.8578L2.57703 8.58126C-4.24113 15.6586 3.29473 34.4135 20.1607 51.0452C37.0267 67.677 56.0457 75.4622 63.2228 68.3847L70.0409 61.6612C72.553 58.8303 72.553 54.5839 70.0409 52.1068Z" fill="#1F1F1F"/>
</g>
</g>
<defs>
<clipPath id="clip0_225_2795">
<rect width="72" height="71" fill="white"/>
</clipPath>
</defs>
</svg>
