<svg width="51" height="51" viewBox="0 0 51 51" fill="none" xmlns="http://www.w3.org/2000/svg">
<path d="M49.5617 25.3901C50.7406 23.0576 50.2525 20.289 48.3468 18.5004L45.581 15.9044C44.943 15.3057 44.553 14.6301 44.3534 13.778L43.4881 10.0849C42.8921 7.54027 40.7384 5.73306 38.1288 5.58793L34.3416 5.37726C33.4679 5.32865 32.7348 5.06179 32.0343 4.53755L28.9976 2.26446C26.9056 0.698404 24.0939 0.698205 22.0017 2.26446L18.965 4.53745C18.2645 5.06179 17.5313 5.32865 16.6577 5.37726L12.8705 5.58793C10.261 5.73306 8.10724 7.54027 7.51117 10.0849L6.64587 13.7781C6.44635 14.6301 6.05628 15.3057 5.41838 15.9045L2.65243 18.5004C0.746801 20.2889 0.258615 23.0576 1.43759 25.3901L3.14888 28.7753C3.54363 29.5562 3.6791 30.3245 3.57521 31.1933L3.12497 34.9597C2.81489 37.5547 4.22058 39.9894 6.62296 41.0184L10.1099 42.5117C10.9141 42.8562 11.5118 43.3576 11.9908 44.0898L14.067 47.2645C15.4973 49.4517 18.1391 50.4133 20.641 49.6572L24.2719 48.5599C25.1096 48.3067 25.8897 48.3068 26.7271 48.5599L30.3581 49.6572C30.9136 49.8259 31.4908 49.9118 32.0714 49.9123C33.9991 49.9122 35.8272 48.9541 36.9321 47.2645L39.0084 44.0898C39.4873 43.3576 40.0849 42.8561 40.8892 42.5116L44.3761 41.0183C46.7785 39.9893 48.1843 37.5546 47.8741 34.9596L47.4239 31.1931C47.32 30.3244 47.4554 29.556 47.8502 28.7752L49.5617 25.3901ZM46.4281 28.0564C45.8925 29.116 45.7006 30.2039 45.8416 31.3825L46.2918 35.1489C46.5208 37.0649 45.5226 38.7937 43.7489 39.5534L40.2619 41.0468C39.1707 41.5141 38.3244 42.2243 37.6747 43.2177L35.5984 46.3923C34.5424 48.0072 32.6662 48.6899 30.8193 48.1317L27.1883 47.0344C26.6201 46.8627 26.06 46.7768 25.4996 46.7768C24.9394 46.7768 24.379 46.8627 23.811 47.0344L20.18 48.1317C18.333 48.6898 16.457 48.0072 15.4008 46.3923L13.3247 43.2177C12.6748 42.2242 11.8284 41.514 10.7373 41.0468L7.2504 39.5534C5.47655 38.7938 4.47847 37.0649 4.70747 35.1489L5.1577 31.3825C5.29865 30.2038 5.1068 29.1159 4.5712 28.0563L2.85991 24.6711C1.98953 22.9489 2.33607 20.9831 3.74305 19.6624L6.509 17.0665C7.37451 16.2542 7.92684 15.2975 8.19758 14.1416L9.06289 10.4484C9.50296 8.56964 11.0323 7.28637 12.9589 7.17929L16.7462 6.96861C17.9314 6.90267 18.9695 6.52476 19.9199 5.81344L22.9566 3.54036C24.5013 2.38409 26.4978 2.38399 28.0426 3.54036L31.0793 5.81344C32.0296 6.52476 33.0679 6.90267 34.253 6.96861L38.0403 7.17929C39.967 7.28647 41.4962 8.56964 41.9363 10.4485L42.8016 14.1416C43.0723 15.2976 43.6248 16.2543 44.4903 17.0665L47.2561 19.6624C48.6631 20.983 49.0096 22.9489 48.1392 24.6711L46.4281 28.0564ZM25.4997 9.20913C16.517 9.20913 9.20902 16.5171 9.20902 25.4998C9.20902 34.4826 16.517 41.7906 25.4997 41.7906C34.4825 41.7906 41.7904 34.4826 41.7904 25.4998C41.7904 16.5171 34.4825 9.20913 25.4997 9.20913ZM25.4997 40.1968C17.3958 40.1968 10.8028 33.6038 10.8028 25.4998C10.8028 17.3959 17.3958 10.8029 25.4997 10.8029C33.6037 10.8029 40.1967 17.3959 40.1967 25.4998C40.1967 33.6038 33.6037 40.1968 25.4997 40.1968ZM32.2824 18.1158H32.2706C31.4743 18.1189 30.7275 18.4319 30.168 18.9971L23.5598 25.6711L20.8307 22.9419C20.2672 22.3783 19.5177 22.0679 18.7204 22.0679C17.923 22.0679 17.1737 22.3783 16.61 22.942C15.4465 24.1056 15.4465 25.999 16.61 27.1625L21.4571 32.0096C22.0389 32.5913 22.8031 32.8823 23.5674 32.8823C24.3317 32.8823 25.096 32.5914 25.6778 32.0096C27.5155 30.1718 29.3698 28.291 31.163 26.4722C32.2401 25.3788 33.3185 24.2867 34.3983 23.196C35.554 22.0298 35.5479 20.14 34.3848 18.9833C33.8221 18.4235 33.0759 18.1158 32.2824 18.1158ZM33.2663 22.0741C32.1855 23.1658 31.1061 24.2589 30.028 25.3532C28.2368 27.1701 26.3846 29.0488 24.5509 30.8825C24.0086 31.4248 23.1261 31.4248 22.5841 30.8825L17.7371 26.0354C17.1949 25.4933 17.1949 24.6109 17.7371 24.0687C17.8659 23.9391 18.0192 23.8365 18.188 23.7666C18.3568 23.6967 18.5377 23.6609 18.7204 23.6615C19.0919 23.6615 19.4412 23.8061 19.7038 24.0687L22.9991 27.3641C23.1486 27.5136 23.3513 27.5975 23.5626 27.5975H23.5646C23.6696 27.5973 23.7735 27.5763 23.8703 27.5357C23.9672 27.4952 24.055 27.4359 24.1289 27.3613L31.3006 20.1182C31.4281 19.9888 31.5801 19.886 31.7476 19.8158C31.9152 19.7456 32.0951 19.7094 32.2768 19.7094H32.2823C32.6518 19.7094 32.9991 19.8526 33.2611 20.1131C33.8021 20.6514 33.8045 21.5309 33.2663 22.0741Z" fill="white"/>
</svg>
