<svg width="47" height="47" viewBox="0 0 47 47" fill="none" xmlns="http://www.w3.org/2000/svg">
<g id="Frame" clip-path="url(#clip0_225_2989)">
<g id="Group">
<path id="Vector" d="M33.643 5.3723C31.264 3.13076 27.1877 2.61918 23.5 6.30687C19.8177 2.6228 15.736 3.13076 13.357 5.37049C10.5858 7.97899 10.537 12.3428 13.2088 15.0145L23.5 25.3075L33.7912 15.0163C36.463 12.3446 36.4142 7.9808 33.643 5.3723ZM32.5132 13.7365L23.5 22.7515L14.4868 13.7383C12.5309 11.7806 12.5689 8.59722 14.5971 6.6883C15.4612 5.87122 16.6181 5.42291 17.8546 5.42291C20.4432 5.42291 21.6073 6.9703 23.5 8.86295C25.342 7.02091 26.5279 5.42291 29.1454 5.42291C30.3819 5.42291 31.5388 5.87122 32.4047 6.68649C34.4275 8.5918 34.4745 11.7751 32.5132 13.7365ZM43.9107 5.42291C42.3181 5.42291 40.9967 6.61599 40.8376 8.19953L39.6933 19.4994C39.142 19.6169 38.6358 19.8845 38.2435 20.2767L29.1129 28.7765C27.8565 29.9208 27.128 31.5531 27.1154 33.2596V43.3845H37.9615V38.6194C37.9615 37.8836 38.2707 37.1678 38.831 36.6363L45.6912 29.7129C46.5354 28.8596 47 27.7298 47 26.5313V8.51226C47 6.80941 45.6135 5.42291 43.9107 5.42291ZM45.1923 26.5313C45.1923 27.2508 44.9139 27.9287 44.406 28.4421L37.5675 35.3438C36.669 36.1935 36.1538 37.3865 36.1538 38.6194V41.5768H28.9231V33.2704C28.9321 32.0719 29.4437 30.924 30.3385 30.1106L39.4981 21.5801C39.7439 21.3342 40.0802 21.2131 40.4363 21.2493C40.6333 21.2673 40.9171 21.3378 41.1593 21.5801C41.2689 21.689 41.3558 21.8186 41.4151 21.9613C41.4744 22.104 41.5048 22.2571 41.5046 22.4116C41.5046 22.7243 41.3799 23.0208 41.1901 23.2124L34.1383 29.608L35.353 30.9457L42.4374 24.5194C43.0014 23.9554 43.3123 23.207 43.3123 22.4098C43.3123 21.6126 43.0032 20.8642 42.4392 20.302C42.1697 20.0285 41.8482 19.8116 41.4938 19.6639L42.6344 8.38391C42.6658 8.06746 42.8139 7.77404 43.0498 7.56083C43.2858 7.34762 43.5927 7.2299 43.9107 7.23061C44.6175 7.23061 45.1923 7.80545 45.1923 8.51226V26.5313ZM17.8871 28.7765L8.75646 20.2767C8.36419 19.8845 7.85804 19.6151 7.30669 19.4994L6.16242 8.19953C6.00335 6.61599 4.68192 5.42291 3.08935 5.42291C1.3865 5.42291 0 6.80941 0 8.51226V26.5313C0 27.7298 0.464577 28.8596 1.30877 29.7111L8.16896 36.6345C8.72935 37.166 9.03846 37.8836 9.03846 38.6194V43.3845H19.8846V33.2596C19.8738 31.5531 19.1435 29.9226 17.8871 28.7765ZM18.0769 41.5768H10.8462V38.6194C10.8462 37.3883 10.331 36.1935 9.43254 35.3438L2.59404 28.4421C2.08608 27.9287 1.80769 27.2508 1.80769 26.5313V8.51226C1.80769 7.80545 2.38254 7.23061 3.08935 7.23061C3.74915 7.23061 4.29869 7.72591 4.36558 8.3803L5.50623 19.6603C5.15247 19.8093 4.83129 20.0261 4.56081 20.2984C3.99862 20.8606 3.68769 21.609 3.68769 22.4062C3.68769 23.2034 3.99862 23.9518 4.56262 24.5158L11.647 30.9421L12.8617 29.6044L5.80992 23.2088C5.61831 23.0172 5.49538 22.7225 5.49538 22.408C5.49538 22.0935 5.61831 21.7988 5.84065 21.5765C6.08108 21.3342 6.36669 21.2637 6.56373 21.2456C6.92165 21.2113 7.25608 21.3306 7.50192 21.5765L16.6615 30.107C17.5563 30.9204 18.0679 32.0683 18.0769 33.2668V41.5768Z" fill="white"/>
</g>
</g>
<defs>
<clipPath id="clip0_225_2989">
<rect width="47" height="47" fill="white"/>
</clipPath>
</defs>
</svg>
