<svg width="53" height="53" viewBox="0 0 53 53" fill="none" xmlns="http://www.w3.org/2000/svg">
<path d="M36.749 15.661C34.0767 13.0558 30.4367 11.6211 26.4998 11.6211C22.5628 11.6211 18.9228 13.0558 16.2505 15.661C13.5787 18.2656 12.1074 21.8069 12.1074 25.6328C12.1074 29.7161 13.9229 33.6122 17.0884 36.3225C18.7471 37.7425 19.7941 39.7065 20.1437 42.0294C19.2929 42.5287 18.7208 43.4476 18.7208 44.497V45.3557C18.7208 46.6607 19.6055 47.764 20.8111 48.109C20.6454 48.4755 20.5597 48.8731 20.5599 49.2753V50.1341C20.5599 51.7142 21.8565 52.9998 23.4501 52.9998H29.5495C31.1431 52.9998 32.4397 51.7142 32.4397 50.1341V49.2753C32.4397 48.8601 32.3495 48.4655 32.1885 48.109C33.3942 47.764 34.2789 46.6608 34.2789 45.3557V44.497C34.2789 43.4476 33.7067 42.5287 32.8559 42.0294C33.2056 39.7065 34.2526 37.7425 35.9112 36.3225C39.0767 33.6124 40.8922 29.7162 40.8922 25.6328C40.8922 21.8069 39.4208 18.2656 36.749 15.661ZM30.6278 50.134C30.6278 50.7151 30.1441 51.1877 29.5495 51.1877H23.45C22.8554 51.1877 22.3718 50.7151 22.3718 50.134V49.2752C22.3718 48.6941 22.8554 48.2213 23.45 48.2213H29.5494C30.144 48.2213 30.6276 48.694 30.6276 49.2752L30.6278 50.134ZM32.4668 45.3556C32.4668 45.9367 31.9831 46.4094 31.3886 46.4094H21.6108C21.0163 46.4094 20.5326 45.9367 20.5326 45.3556V44.4968C20.5326 43.9158 21.0163 43.4431 21.6108 43.4431H31.3886C31.9831 43.4431 32.4668 43.9158 32.4668 44.4968V45.3556ZM23.69 30.2649H21.8929C21.1662 30.2649 20.5751 29.6858 20.5751 28.9742C20.5751 28.2625 21.1662 27.6834 21.8929 27.6834H22.3721C23.0988 27.6834 23.69 28.2624 23.69 28.9742V30.2649ZM27.5625 41.6311H25.5019V32.0768H27.5625V41.6311ZM34.7328 34.946C32.7667 36.6292 31.518 38.928 31.0845 41.6311H29.3743V32.0768H31.2009C32.9267 32.0768 34.3307 30.6849 34.3307 28.9742C34.3307 27.2633 32.9267 25.8714 31.2009 25.8714H30.6922C28.9664 25.8714 27.5624 27.2633 27.5624 28.9742V30.2649H25.5018V28.9742C25.5018 27.2633 24.0978 25.8714 22.372 25.8714H21.8928C20.167 25.8714 18.763 27.2633 18.763 28.9742C18.763 30.685 20.167 32.0768 21.8928 32.0768H23.6898V41.6311H21.9148C21.4813 38.928 20.2326 36.6292 18.2665 34.946C15.5037 32.5806 13.919 29.186 13.919 25.6328C13.919 18.6778 19.3274 13.4331 26.4995 13.4331C33.6716 13.4331 39.08 18.6778 39.08 25.6328C39.0802 29.186 37.4957 32.5804 34.7328 34.946ZM29.3744 30.2649V28.9742C29.3744 28.2624 29.9656 27.6834 30.6923 27.6834H31.201C31.9277 27.6834 32.5189 28.2624 32.5189 28.9742C32.5189 29.6859 31.9277 30.2649 31.201 30.2649H29.3744Z" fill="white"/>
<path d="M41.0097 45.8127C40.3375 45.8127 39.6855 45.5585 39.183 45.0574L36.6353 42.5166L37.9148 41.2337L40.4625 43.7744C40.8084 44.1192 41.2713 44.0181 41.5845 43.8165L44.7075 40.8059C45.0437 40.4658 44.9465 40.0131 44.7488 39.704L42.2616 37.2236C42.1117 37.0741 42.0188 36.8768 41.9992 36.666C41.9796 36.4552 42.0345 36.2441 42.1542 36.0696C43.5099 34.0936 44.4894 31.7907 44.9868 29.4099C45.0293 29.2062 45.1407 29.0233 45.3022 28.8921C45.4637 28.7608 45.6655 28.6892 45.8736 28.6892H49.4174C49.7169 28.6371 50.1692 28.4224 50.1692 27.9013V23.5209C50.1301 23.2962 49.9641 22.7731 49.2706 22.7731H45.6613C45.4469 22.7731 45.2394 22.6971 45.0758 22.5586C44.9122 22.4201 44.803 22.228 44.7676 22.0165C44.3918 19.7673 43.4472 17.4341 42.0361 15.269C41.9225 15.0947 41.8723 14.8866 41.8941 14.6797C41.9158 14.4728 42.008 14.2797 42.1553 14.1328L44.7031 11.5921C45.0466 11.2495 44.9461 10.7906 44.7452 10.4802L41.7264 7.36587C41.3832 7.02839 40.9263 7.12612 40.6146 7.32465L38.1272 9.80511C37.9779 9.95402 37.7813 10.0462 37.5713 10.0657C37.3613 10.0852 37.1511 10.0309 36.9769 9.91202C34.995 8.55973 32.6852 7.58262 30.2971 7.08649C30.0931 7.04412 29.91 6.93278 29.7785 6.77121C29.6471 6.60964 29.5753 6.40771 29.5753 6.19942V2.59983C29.5753 2.12861 29.2204 1.81197 28.8889 1.81197H24.4958C24.1963 1.86395 23.744 2.07878 23.744 2.59983V6.30508C23.744 6.5196 23.6679 6.72718 23.5292 6.89084C23.3905 7.05451 23.1982 7.16364 22.9866 7.19883C20.7303 7.5739 18.3899 8.51613 16.2184 9.92368C16.0445 10.0364 15.8373 10.0861 15.6312 10.0645C15.4251 10.0429 15.2327 9.95131 15.0859 9.805L12.5382 7.26428C12.1923 6.91956 11.7294 7.02058 11.4163 7.22216L8.2931 10.2329C7.95698 10.5728 8.05438 11.0256 8.25199 11.3345L10.7393 13.815C10.8892 13.9645 10.982 14.1618 11.0016 14.3726C11.0212 14.5834 10.9664 14.7944 10.8466 14.969C9.49092 16.9449 8.51144 19.2478 8.01406 21.6288C7.9715 21.8325 7.86011 22.0153 7.6986 22.1466C7.53709 22.2778 7.33533 22.3495 7.12722 22.3495H3.58346C3.28392 22.4014 2.8315 22.6163 2.8315 23.1373V27.5175C2.88382 27.8157 3.09967 28.2655 3.62401 28.2655H7.23322C7.44761 28.2655 7.65506 28.3415 7.81869 28.4801C7.98231 28.6186 8.09151 28.8107 8.12685 29.0221C8.50272 31.2715 9.44732 33.6047 10.8585 35.7697C10.9721 35.944 11.0223 36.152 11.0005 36.359C10.9788 36.5659 10.8866 36.759 10.7393 36.9059L8.19152 39.4466C7.84804 39.7892 7.94849 40.2481 8.1495 40.5585L11.1684 43.6729C11.5116 44.0103 11.9684 43.9125 12.2801 43.7141L14.7675 41.2336L16.047 42.5165L13.4992 45.0573C13.4639 45.0925 13.4258 45.1247 13.3852 45.1536C12.2525 45.9605 10.8129 45.8774 9.88435 44.9514L9.87359 44.9404L6.79506 41.7647C6.76391 41.7325 6.73514 41.6981 6.70899 41.6617C5.89825 40.5298 5.98171 39.0914 6.91193 38.1636L8.94745 36.1338C7.76469 34.1809 6.92371 32.1128 6.48465 30.0775H3.62401C2.29187 30.0775 1.19948 29.0761 1.02655 27.6962C1.02189 27.6589 1.01955 27.6212 1.01953 27.5836V23.1373C1.01953 21.8074 2.02302 20.7169 3.40578 20.5444C3.44292 20.5398 3.48041 20.5374 3.51789 20.5374H6.40481C6.92688 18.4294 7.79153 16.3935 8.93658 14.5761L6.91204 12.5572C6.87667 12.5219 6.84428 12.4838 6.81522 12.4432C6.00448 11.3113 6.08794 9.87284 7.01816 8.94522L7.02914 8.93446L10.2138 5.86443C10.246 5.83339 10.2805 5.80477 10.317 5.77881C11.4495 4.97192 12.8893 5.05505 13.8178 5.98119L15.8559 8.01365C17.8152 6.83292 19.8904 5.99364 21.9322 5.5556V2.59983C21.9322 1.26974 22.9357 0.179271 24.3185 0.00702137C24.3554 0.00237821 24.3929 0 24.4302 0H28.8888C30.2664 0 31.3872 1.16623 31.3872 2.59983V5.47599C33.5023 5.99681 35.5447 6.85976 37.368 8.00289L39.3954 5.98119C39.4307 5.94596 39.4688 5.91372 39.5094 5.88481C40.642 5.07792 42.0816 5.16105 43.0103 6.08707L43.021 6.09806L46.0995 9.27398C46.1307 9.30614 46.1595 9.34057 46.1856 9.37704C46.9964 10.5089 46.9128 11.9474 45.9827 12.875L43.9473 14.9049C45.1299 16.8577 45.9709 18.9261 46.4101 20.9612H49.2707C50.6868 20.9612 51.7985 21.9403 51.9743 23.3424C51.9789 23.3798 51.9813 23.4175 51.9813 23.4551V27.9013C51.9813 29.2313 50.9778 30.3218 49.5951 30.4943C49.5579 30.4989 49.5204 30.5013 49.4829 30.5013H46.596C46.074 32.6093 45.2093 34.6451 44.0643 36.4625L46.0888 38.4815C46.1242 38.5167 46.1565 38.5549 46.1856 38.5954C46.9964 39.7274 46.9129 41.1658 45.9827 42.0936L45.9717 42.1043L42.787 45.1744C42.7548 45.2054 42.7203 45.234 42.6839 45.26C42.1641 45.6298 41.5796 45.8127 41.0097 45.8127Z" fill="white"/>
</svg>
