<svg width="53" height="53" viewBox="0 0 53 53" fill="none" xmlns="http://www.w3.org/2000/svg">
<path d="M51.8656 25.0645L45.3928 9.75352C45.3289 9.60102 45.2353 9.46274 45.1175 9.34671C44.9996 9.23067 44.86 9.13918 44.7065 9.07756C44.3939 8.95128 44.0523 8.95335 43.7428 9.08377L40.6642 10.385C40.3547 10.5154 40.1145 10.7597 39.9883 11.0723C39.862 11.3849 39.864 11.7265 39.9945 12.036L40.2067 12.5371C37.3879 13.5929 34.7203 12.9604 32.3498 12.3994C30.1336 11.8735 28.0394 11.3777 26.1865 12.3186C26.1669 12.329 26.1472 12.3404 26.1275 12.3528C25.1048 13.0205 24.2632 13.6892 23.5479 14.2948C22.7819 13.7999 21.7064 13.9004 20.4973 14.0132C18.7748 14.1736 16.66 14.3703 14.6218 12.9635L14.8267 12.624C15.0006 12.3362 15.0513 11.9988 14.9706 11.6706C14.8899 11.3435 14.687 11.0682 14.3992 10.8943L11.538 9.16659C11.2502 8.99268 10.9118 8.94196 10.5846 9.0227C10.2575 9.10344 9.98218 9.30633 9.80828 9.59411L1.21648 23.8234C1.04257 24.1111 0.99185 24.4496 1.07259 24.7767C1.15333 25.1039 1.35622 25.3792 1.644 25.5531L4.50517 27.2808C4.70392 27.4009 4.92648 27.4619 5.15318 27.4619C5.25462 27.4619 5.3571 27.4495 5.45855 27.4247C5.78566 27.3439 6.06101 27.141 6.23492 26.8533L6.86947 25.8015C8.83937 26.2063 10.0795 27.1887 10.4791 27.7487L9.11783 29.2962C8.58162 29.907 8.31455 30.6927 8.36734 31.5084C8.42013 32.3241 8.78554 33.0694 9.39628 33.6056C9.95254 34.0954 10.6685 34.3652 11.4097 34.3644C11.6374 34.3644 11.8641 34.3385 12.0856 34.2888C12.0401 35.1894 12.3889 36.1014 13.1177 36.7411C13.6725 37.2302 14.3872 37.4994 15.1269 37.4978C15.1942 37.4978 15.2615 37.4957 15.3298 37.4916C15.4706 37.4823 15.6093 37.4636 15.7449 37.4357C15.7356 37.5744 15.7345 37.7141 15.7428 37.8549C15.7956 38.6706 16.161 39.4149 16.7718 39.9521C17.328 40.4419 18.044 40.7117 18.7852 40.7109C18.9974 40.7109 19.2096 40.6892 19.4166 40.6457C19.3576 41.5597 19.7064 42.4903 20.4455 43.1404C21.0004 43.6295 21.7151 43.8987 22.4548 43.8971C22.5221 43.8971 22.5894 43.895 22.6577 43.8909C23.3409 43.8464 23.9744 43.5824 24.4775 43.1394L24.671 43.2967C25.2704 43.7843 25.9867 44.0234 26.6917 44.0234C27.5384 44.0234 28.3686 43.6787 28.9618 43.0038C29.4442 42.4551 29.6936 41.7802 29.7174 41.1012C30.1211 41.2927 30.5642 41.3931 31.0207 41.3931C31.088 41.3931 31.1553 41.391 31.2236 41.3869C32.0393 41.3341 32.7846 40.9687 33.3208 40.3579C33.7949 39.8186 34.0568 39.1437 34.0765 38.4315C34.4647 38.6064 34.888 38.6986 35.3238 38.6986C35.3911 38.6986 35.4584 38.6965 35.5267 38.6923C36.3424 38.6396 37.0867 38.2741 37.624 37.6634C38.1194 37.1007 38.3892 36.3748 38.3817 35.6252C38.7026 35.738 39.0432 35.797 39.391 35.797C39.4583 35.797 39.5255 35.7949 39.5939 35.7908C40.4096 35.738 41.1538 35.3726 41.6911 34.7619C42.6921 33.6232 42.69 31.9421 41.7553 30.8065C43.3763 29.9681 43.8763 29.1668 44.3235 28.4495C44.7106 27.8284 45.0264 27.3232 46.2478 26.8274L46.4694 27.3501C46.6723 27.8305 47.1402 28.1193 47.6308 28.1193C47.7944 28.1193 47.96 28.0872 48.1194 28.0199L51.198 26.7187C51.3506 26.6547 51.489 26.561 51.605 26.443C51.7211 26.325 51.8125 26.185 51.8739 26.0314C51.9992 25.7167 51.9961 25.374 51.8656 25.0645ZM5.16974 26.2104C5.1656 26.2177 5.15318 26.2208 5.14593 26.2166L2.28476 24.489C2.27751 24.4848 2.27441 24.4724 2.27855 24.4652L10.8714 10.2349C10.8745 10.2297 10.8807 10.2266 10.8869 10.2266C10.89 10.2266 10.8921 10.2276 10.8952 10.2287L13.7564 11.9563C13.7636 11.9605 13.7667 11.9729 13.7626 11.9801L5.16974 26.2104ZM12.7719 32.5063C12.1125 33.2567 10.9656 33.3302 10.2161 32.6708C9.85486 32.3531 9.63851 31.9121 9.60745 31.4266C9.5764 30.9421 9.73374 30.4763 10.0515 30.115L12.6353 27.1752C12.9924 26.7684 13.4934 26.5603 13.9965 26.5603C14.4209 26.5603 14.8474 26.7083 15.1911 27.0096C15.9416 27.669 16.0151 28.8149 15.3557 29.5654L12.8392 32.4286L12.7719 32.5063ZM13.9375 35.8053C13.1881 35.1469 13.1135 34.0021 13.7709 33.2516L16.2884 30.3863C16.3111 30.3604 16.3318 30.3345 16.3536 30.3076L16.3556 30.3097C16.6734 29.9484 17.1144 29.732 17.5999 29.701C18.0844 29.671 18.5502 29.8273 18.9114 30.1451C19.6619 30.8045 19.7354 31.9504 19.076 32.7009L16.4923 35.6407C15.8339 36.3912 14.687 36.4647 13.9375 35.8053ZM17.5906 39.0164C17.2293 38.6986 17.013 38.2576 16.9819 37.7721C16.9509 37.2876 17.1082 36.8218 17.426 36.4606L19.2075 34.4327C19.5253 34.0714 19.9663 33.8551 20.4518 33.824C20.9362 33.7919 21.402 33.9503 21.7633 34.2681C22.1246 34.5859 22.3409 35.0269 22.372 35.5123C22.403 35.9968 22.2457 36.4626 21.9279 36.8239L20.1464 38.8518C19.487 39.6012 18.3411 39.6757 17.5906 39.0164ZM22.578 42.6477C22.0935 42.6787 21.6277 42.5214 21.2664 42.2036C20.5159 41.5442 20.4424 40.3983 21.1018 39.6478L21.3761 39.3352C21.6939 38.9739 22.1349 38.7576 22.6204 38.7265C22.6608 38.7244 22.7011 38.7224 22.7415 38.7224C23.1825 38.7224 23.6017 38.8787 23.933 39.1706C24.6835 39.83 24.757 40.9759 24.0976 41.7264L23.8233 42.039C23.5044 42.3992 23.0624 42.6156 22.578 42.6477ZM40.7563 33.9368C40.4385 34.2981 39.9965 34.5145 39.5121 34.5455C39.0266 34.5766 38.5618 34.4192 38.2005 34.1014L31.3809 28.1089C31.1232 27.8822 30.7309 27.9081 30.5042 28.1658C30.2775 28.4236 30.3033 28.8159 30.5611 29.0426L36.5236 34.2826C37.2741 34.942 37.3476 36.0879 36.6882 36.8384C36.3704 37.1997 35.9284 37.416 35.4439 37.4471C34.9595 37.4781 34.4936 37.3208 34.1324 37.003L27.9784 31.5953C27.7206 31.3686 27.3283 31.3945 27.1016 31.6523C26.8749 31.91 26.9008 32.3023 27.1585 32.529L32.2204 36.9771C32.5817 37.2949 32.7981 37.7359 32.8291 38.2214C32.8602 38.7058 32.7028 39.1716 32.385 39.5329C32.0672 39.8942 31.6263 40.1105 31.1408 40.1416C30.6563 40.1716 30.1905 40.0153 29.8292 39.6975L28.6833 38.6903C28.6823 38.6903 28.6823 38.6892 28.6812 38.6892C28.6812 38.6892 28.6802 38.6892 28.6802 38.6882L26.6161 36.8746C26.5549 36.8206 26.4836 36.7793 26.4063 36.7529C26.3291 36.7266 26.2474 36.7157 26.1659 36.721C26.0844 36.7263 26.0048 36.7476 25.9316 36.7838C25.8584 36.8199 25.7931 36.8701 25.7393 36.9315C25.6855 36.9928 25.6442 37.0642 25.6179 37.1414C25.5917 37.2186 25.5808 37.3003 25.5861 37.3817C25.5914 37.4632 25.6127 37.5427 25.6488 37.6159C25.6848 37.6891 25.7349 37.7545 25.7963 37.8083L27.8614 39.623C28.6109 40.2824 28.6843 41.4283 28.026 42.1777C27.3821 42.9106 26.2507 42.9769 25.4516 42.3268L25.2911 42.1964C26.1068 40.9459 25.9018 39.2493 24.7487 38.2358C24.2571 37.8023 23.6381 37.5401 22.9848 37.4885C23.4371 36.9026 23.6587 36.179 23.61 35.4295C23.5572 34.6138 23.1918 33.8696 22.5811 33.3323C22.0258 32.8432 21.3108 32.574 20.5708 32.5756C21.0025 31.4214 20.7074 30.0695 19.7282 29.2093C19.1174 28.6731 18.3318 28.407 17.5161 28.4588C17.3535 28.4691 17.1941 28.493 17.0378 28.5271C17.0834 27.6265 16.7345 26.7146 16.0068 26.0748C15.3961 25.5386 14.6114 25.2726 13.7947 25.3243C12.979 25.3771 12.2347 25.7425 11.6974 26.3523L11.3041 26.7994C10.5846 25.9568 9.21203 25.1111 7.53921 24.6805L13.9737 14.0235C16.3587 15.6405 18.7934 15.4148 20.6081 15.245C21.4331 15.1684 22.0604 15.1198 22.492 15.2026C22.0966 15.5483 21.7457 15.8506 21.4093 16.1063C18.8607 18.041 19.1795 20.1496 19.4601 22.0098C19.6723 23.4165 19.8731 24.7457 18.9891 26.1204C18.8856 26.2808 18.8618 26.4806 18.9249 26.6618C18.988 26.8429 19.1309 26.9837 19.312 27.0448C19.6909 27.1731 20.0843 27.2352 20.4849 27.2352C21.4331 27.2352 22.4134 26.8812 23.2974 26.2011C24.729 25.0987 25.5892 23.4114 25.4868 21.9021C25.4412 21.2324 25.8087 20.2386 26.408 19.8846C26.5405 19.8059 26.9401 19.572 27.6699 20.0264L40.5876 31.3769C41.3412 32.0404 41.4147 33.1874 40.7563 33.9368ZM43.2676 27.789C42.837 28.4805 42.4281 29.1358 40.7822 29.8956L28.4535 19.0616C28.4504 19.0585 28.4463 19.0565 28.4432 19.0534C28.4349 19.0461 28.4256 19.0389 28.4173 19.0327C28.409 19.0265 28.3997 19.0192 28.3904 19.013C28.3862 19.0109 28.3831 19.0078 28.379 19.0047C27.1647 18.2252 26.23 18.5534 25.7807 18.8194C24.7321 19.4395 24.1793 20.9177 24.2518 21.9901C24.3253 23.0791 23.639 24.3782 22.5438 25.2208C21.8823 25.7301 21.1639 25.9962 20.4869 25.9962H20.4642C21.0987 24.5159 20.8844 23.0998 20.6929 21.8276C20.4197 20.0181 20.2043 18.5886 22.1649 17.099C22.5862 16.7791 23.0272 16.392 23.4941 15.9831C24.3853 15.2015 25.3946 14.3175 26.7776 13.4107C28.2206 12.6954 30.0021 13.1178 32.0631 13.6064C34.6261 14.214 37.5122 14.8972 40.6911 13.6809L45.7634 25.6794C44.1775 26.3305 43.7148 27.0707 43.2676 27.789ZM50.7125 25.5717L47.6339 26.8729C47.6267 26.876 47.6143 26.8709 47.6111 26.8636L41.1383 11.5526C41.1352 11.5454 41.1404 11.533 41.1476 11.5298L44.2262 10.2287C44.2334 10.2256 44.2459 10.2307 44.249 10.238L50.7218 25.549C50.7249 25.5562 50.7197 25.5676 50.7125 25.5717Z" fill="white"/>
</svg>
